<svg width="37" height="37" viewBox="0 0 37 37" fill="none" xmlns="http://www.w3.org/2000/svg">
<g clip-path="url(#clip0_243_383)">
<path d="M13.6963 32.5C15.077 32.5 16.1963 31.3807 16.1963 30C16.1963 28.6193 15.077 27.5 13.6963 27.5C12.3156 27.5 11.1963 28.6193 11.1963 30C11.1963 31.3807 12.3156 32.5 13.6963 32.5Z" fill="#2A2744"/>
<path d="M26.6963 32.5C28.077 32.5 29.1963 31.3807 29.1963 30C29.1963 28.6193 28.077 27.5 26.6963 27.5C25.3156 27.5 24.1963 28.6193 24.1963 30C24.1963 31.3807 25.3156 32.5 26.6963 32.5Z" fill="#2A2744"/>
<path d="M33.2963 6.89003C33.2031 6.76901 33.0835 6.67094 32.9465 6.60334C32.8096 6.53573 32.659 6.50039 32.5063 6.50003H9.40628L8.95628 5.07003C8.90685 4.91648 8.82101 4.77718 8.70608 4.664C8.59116 4.55081 8.45056 4.46711 8.29628 4.42003L4.19628 3.16003C4.07021 3.12129 3.93774 3.10776 3.80645 3.12021C3.67515 3.13266 3.54759 3.17086 3.43105 3.23261C3.19569 3.35732 3.01952 3.57042 2.94128 3.82503C2.86304 4.07963 2.88915 4.35489 3.01386 4.59025C3.13857 4.82561 3.35167 5.00179 3.60628 5.08003L7.19628 6.18003L11.7763 20.65L10.1463 21.99L10.0163 22.12C9.61318 22.5868 9.38479 23.1791 9.3702 23.7957C9.35561 24.4122 9.55571 25.0147 9.93628 25.5C10.2088 25.8315 10.5552 26.0946 10.9476 26.2682C11.34 26.4418 11.7677 26.5212 12.1963 26.5H28.8863C29.1515 26.5 29.4058 26.3947 29.5934 26.2071C29.7809 26.0196 29.8863 25.7652 29.8863 25.5C29.8863 25.2348 29.7809 24.9805 29.5934 24.7929C29.4058 24.6054 29.1515 24.5 28.8863 24.5H12.0363C11.9211 24.4961 11.8089 24.4625 11.7105 24.4026C11.6121 24.3426 11.5309 24.2583 11.4746 24.1578C11.4183 24.0573 11.3889 23.9439 11.3892 23.8287C11.3895 23.7135 11.4195 23.6003 11.4763 23.5L13.8863 21.5H29.3163C29.5447 21.5067 29.7685 21.4349 29.9505 21.2966C30.1324 21.1583 30.2615 20.9619 30.3163 20.74L33.5163 7.74003C33.5467 7.59094 33.5427 7.43689 33.5046 7.28959C33.4664 7.14229 33.3952 7.00563 33.2963 6.89003Z" fill="#2A2744"/>
</g>
<defs>
<clipPath id="clip0_243_383">
<rect width="36" height="36" fill="white" transform="translate(0.196289 0.5)"/>
</clipPath>
</defs>
</svg>
