<svg width="40" height="40" viewBox="0 0 40 40" fill="none" xmlns="http://www.w3.org/2000/svg">
<path d="M40 20C40 23.9556 38.827 27.8224 36.6294 31.1114C34.4318 34.4004 31.3082 36.9638 27.6537 38.4776C23.9992 39.9913 19.9778 40.3874 16.0982 39.6157C12.2186 38.844 8.65492 36.9392 5.85787 34.1421C3.06082 31.3451 1.15601 27.7814 0.384303 23.9018C-0.387401 20.0222 0.00866572 16.0008 1.52242 12.3463C3.03617 8.69181 5.59962 5.56823 8.8886 3.37061C12.1776 1.17298 16.0444 0 20 0C25.3043 0 30.3914 2.10714 34.1421 5.85786C37.8929 9.60859 40 14.6957 40 20ZM32.05 16.4C32.492 15.958 32.7404 15.3584 32.7404 14.7333C32.7404 14.1082 32.492 13.5087 32.05 13.0667C31.608 12.6246 31.0085 12.3763 30.3833 12.3763C29.7582 12.3763 29.1587 12.6246 28.7167 13.0667L17.4333 24.35L11.6667 18.6C11.2246 18.158 10.6251 17.9096 10 17.9096C9.37489 17.9096 8.77537 18.158 8.33334 18.6C7.89131 19.042 7.64299 19.6415 7.64299 20.2667C7.64299 20.8918 7.89131 21.4913 8.33334 21.9333L17.4167 31.0167L32.05 16.4Z" fill="url(#paint0_linear_220_2169)"/>
<defs>
<linearGradient id="paint0_linear_220_2169" x1="40" y1="40" x2="11.1246" y2="-6.85567" gradientUnits="userSpaceOnUse">
<stop stop-color="#C251E9"/>
<stop offset="1" stop-color="#6BE7D8"/>
</linearGradient>
</defs>
</svg>
