<svg width="16" height="17" viewBox="0 0 16 17" fill="none" xmlns="http://www.w3.org/2000/svg">
<g clip-path="url(#clip0_203_2533)">
<path d="M5.99128 13.62L11.2891 8.49996L5.99128 3.37996C5.84689 3.24087 5.65315 3.16484 5.4527 3.16859C5.25224 3.17234 5.06149 3.25557 4.9224 3.39996C4.78331 3.54436 4.70727 3.73809 4.71102 3.93855C4.71477 4.13901 4.798 4.32976 4.9424 4.46885L9.11573 8.49996L4.9424 12.5355C4.798 12.6746 4.71477 12.8654 4.71102 13.0658C4.70727 13.2663 4.78331 13.46 4.9224 13.6044C5.06149 13.7488 5.25224 13.832 5.4527 13.8358C5.65315 13.8395 5.84689 13.7635 5.99128 13.6244V13.62Z" fill="#F7F9F9"/>
</g>
<defs>
<clipPath id="clip0_203_2533">
<rect width="16" height="16" fill="white" transform="translate(16 0.5) rotate(90)"/>
</clipPath>
</defs>
</svg>
