<svg width="16" height="17" viewBox="0 0 16 17" fill="none" xmlns="http://www.w3.org/2000/svg">
<g clip-path="url(#clip0_203_2519)">
<path d="M10.0087 13.62L4.71094 8.49996L10.0087 3.37996C10.1531 3.24087 10.3468 3.16484 10.5473 3.16859C10.7478 3.17234 10.9385 3.25557 11.0776 3.39996C11.2167 3.54436 11.2927 3.73809 11.289 3.93855C11.2852 4.13901 11.202 4.32976 11.0576 4.46885L6.88427 8.49996L11.0576 12.5355C11.202 12.6746 11.2852 12.8654 11.289 13.0658C11.2927 13.2663 11.2167 13.46 11.0776 13.6044C10.9385 13.7488 10.7478 13.832 10.5473 13.8358C10.3468 13.8395 10.1531 13.7635 10.0087 13.6244V13.62Z" fill="#F7F9F9"/>
</g>
<defs>
<clipPath id="clip0_203_2519">
<rect width="16" height="16" fill="white" transform="matrix(0 1 1 0 0 0.5)"/>
</clipPath>
</defs>
</svg>
