<svg width="12" height="12" viewBox="0 0 12 12" fill="none" xmlns="http://www.w3.org/2000/svg">
<g clip-path="url(#clip0_203_2315)">
<path d="M4.49346 9.83997L8.4668 5.99997L4.49346 2.15997C4.38517 2.05565 4.23987 1.99863 4.08952 2.00144C3.93918 2.00426 3.79612 2.06668 3.6918 2.17497C3.58748 2.28327 3.53045 2.42857 3.53327 2.57891C3.53608 2.72925 3.5985 2.87232 3.7068 2.97664L6.8368 5.99997L3.7068 9.02664C3.5985 9.13096 3.53608 9.27402 3.53327 9.42437C3.53045 9.57471 3.58748 9.72001 3.6918 9.82831C3.79612 9.9366 3.93918 9.99902 4.08952 10.0018C4.23987 10.0047 4.38517 9.94763 4.49346 9.84331V9.83997Z" fill="#545175"/>
</g>
<defs>
<clipPath id="clip0_203_2315">
<rect width="12" height="12" fill="white" transform="translate(12) rotate(90)"/>
</clipPath>
</defs>
</svg>
