<svg width="11" height="12" viewBox="0 0 11 12" fill="none" xmlns="http://www.w3.org/2000/svg">
<path d="M6.30825 5.9864L10.8677 1.0257C10.9579 0.911231 11.0049 0.76398 10.9996 0.613378C10.9942 0.462776 10.9369 0.319916 10.8389 0.213345C10.741 0.106774 10.6097 0.0443419 10.4712 0.0385248C10.3328 0.0327077 10.1975 0.0839342 10.0922 0.181967L5.53275 5.14266L0.973249 0.175983C0.869682 0.063303 0.729215 0 0.582749 0C0.436283 0 0.295816 0.063303 0.192249 0.175983C0.0886819 0.288663 0.0304985 0.44149 0.0304985 0.600844C0.0304985 0.760197 0.0886819 0.913024 0.192249 1.0257L4.75725 5.9864L0.192249 10.9471C0.134674 11.0007 0.0879128 11.0668 0.0549 11.141C0.0218872 11.2152 0.00333558 11.2961 0.000409855 11.3785C-0.00251587 11.4609 0.0102471 11.5431 0.0378981 11.6199C0.0655492 11.6967 0.107491 11.7664 0.161091 11.8247C0.214691 11.8831 0.278792 11.9287 0.349371 11.9588C0.41995 11.9889 0.495483 12.0027 0.571228 11.9996C0.646974 11.9964 0.721297 11.9762 0.789532 11.9403C0.857768 11.9044 0.918443 11.8535 0.967749 11.7908L5.53275 6.83014L10.0922 11.7908C10.1975 11.8889 10.3328 11.9401 10.4712 11.9343C10.6097 11.9285 10.741 11.866 10.8389 11.7595C10.9369 11.6529 10.9942 11.51 10.9996 11.3594C11.0049 11.2088 10.9579 11.0616 10.8677 10.9471L6.30825 5.9864Z" fill="#A3A2AE"/>
</svg>
