<svg width="28" height="29" viewBox="0 0 28 29" fill="none" xmlns="http://www.w3.org/2000/svg">
<g clip-path="url(#clip0_191_1840)">
<path d="M24.889 5.16675H3.11122C2.69866 5.16675 2.303 5.33064 2.01128 5.62236C1.71955 5.91408 1.55566 6.30974 1.55566 6.7223V22.2779C1.55566 22.6904 1.71955 23.0861 2.01128 23.3778C2.303 23.6695 2.69866 23.8334 3.11122 23.8334H24.889C25.3016 23.8334 25.6972 23.6695 25.9889 23.3778C26.2807 23.0861 26.4446 22.6904 26.4446 22.2779V6.7223C26.4446 6.30974 26.2807 5.91408 25.9889 5.62236C25.6972 5.33064 25.3016 5.16675 24.889 5.16675ZM23.6912 22.2779H4.40233L9.84678 16.6467L8.72678 15.5656L3.11122 21.3756V7.90453L12.779 17.5256C13.0705 17.8154 13.4647 17.978 13.8757 17.978C14.2866 17.978 14.6809 17.8154 14.9723 17.5256L24.889 7.66341V21.2745L19.1646 15.5501L18.0679 16.6467L23.6912 22.2779ZM4.13011 6.7223H23.629L13.8757 16.4212L4.13011 6.7223Z" fill="url(#paint0_linear_191_1840)"/>
</g>
<defs>
<linearGradient id="paint0_linear_191_1840" x1="26.4446" y1="23.8334" x2="14.9545" y2="-1.02617" gradientUnits="userSpaceOnUse">
<stop stop-color="#C251E9"/>
<stop offset="1" stop-color="#6BE7D8"/>
</linearGradient>
<clipPath id="clip0_191_1840">
<rect width="28" height="28" fill="white" transform="translate(0 0.5)"/>
</clipPath>
</defs>
</svg>
