<svg width="48" height="32" viewBox="0 0 48 32" fill="none" xmlns="http://www.w3.org/2000/svg">
<g clip-path="url(#clip0_66_409)">
<path d="M2.47917 11.5417H4.33333L3.39583 9.29167L2.47917 11.5417ZM15.4167 22.5L16.9583 20.8542L15.5 19.2083H12.1042V20.2292H15.0625V21.375H12.1042V22.5H15.4167ZM18.7083 20.875L20.7708 23.1667V18.6458L18.7083 20.875ZM24.7083 19.8958C24.7083 19.4375 24.4306 19.2083 23.875 19.2083H22.125V20.6458H23.8542C24.4236 20.6458 24.7083 20.3958 24.7083 19.8958ZM30.7292 19.8125C30.7292 19.4097 30.4375 19.2083 29.8542 19.2083H28.1458V20.4792H29.8333C30.4306 20.4792 30.7292 20.2569 30.7292 19.8125ZM24.9375 10.1042C24.9375 9.70139 24.6458 9.5 24.0625 9.5H22.3542V10.75H24.0417C24.6389 10.75 24.9375 10.5347 24.9375 10.1042ZM34.5 11.5417H36.3542L35.4375 9.29167L34.5 11.5417ZM14.5625 8.3125V13.9583H13.1875V9.54167L11.2292 13.9583H10.0417L8.08333 9.54167V13.9583H5.33333L4.8125 12.7083H2L1.47917 13.9583H0.0208333L2.4375 8.3125H4.4375L6.72917 13.6667V8.3125H8.9375L10.7083 12.1458L12.3125 8.3125H14.5625ZM26.1458 19.8958C26.1458 20.1736 26.1076 20.4167 26.0312 20.625C25.9549 20.8333 25.8576 21.0069 25.7396 21.1458C25.6215 21.2847 25.4653 21.3993 25.2708 21.4896C25.0764 21.5799 24.8958 21.6493 24.7292 21.6979C24.5625 21.7465 24.3438 21.7778 24.0729 21.7917C23.8021 21.8056 23.5833 21.8125 23.4167 21.8125C23.25 21.8125 23.0243 21.809 22.7396 21.8021C22.4549 21.7951 22.25 21.7917 22.125 21.7917V23.6875H19.5L17.8333 21.8125L16.1042 23.6875H10.7708V18.0417H16.1875L17.8542 19.8958L19.5625 18.0417H23.875C25.3889 18.0417 26.1458 18.6597 26.1458 19.8958ZM20.0833 12.7917V13.9583H15.5625V8.3125H20.0833V9.5H16.9167V10.5208H20V11.6667H16.9167V12.7917H20.0833ZM48 24.4375V29.2083C48 29.9722 47.7326 30.6285 47.1979 31.1771C46.6632 31.7257 46.0139 32 45.25 32H2.75C1.98611 32 1.33681 31.7257 0.802083 31.1771C0.267361 30.6285 0 29.9722 0 29.2083V15.0833H2.3125L2.83333 13.8125H3.97917L4.5 15.0833H9.04167V14.125L9.4375 15.0833H11.7917L12.2083 14.1042V15.0833H23.4792V13.0208L23.6875 13C23.8264 13 23.8958 13.0972 23.8958 13.2917V15.0833H29.7083V14.6042C30.0278 14.7708 30.4097 14.8958 30.8542 14.9792C31.2986 15.0625 31.6632 15.1076 31.9479 15.1146C32.2326 15.1215 32.6701 15.1181 33.2604 15.1042C33.8507 15.0903 34.2083 15.0833 34.3333 15.0833L34.8542 13.8125H36.0208L36.5417 15.0833H41.2708V13.875L41.9792 15.0833H45.7708V7.20833H42.0208V8.125L41.5 7.20833H37.6458V8.125L37.1667 7.20833H31.9792C31.0208 7.20833 30.2639 7.36111 29.7083 7.66667V7.20833H26.125V7.66667C25.7917 7.36111 25.2847 7.20833 24.6042 7.20833H11.5208L10.625 9.22917L9.72917 7.20833H5.60417V8.125L5.14583 7.20833H1.625L0 10.9375V2.79167C0 2.02778 0.267361 1.37153 0.802083 0.822917C1.33681 0.274306 1.98611 0 2.75 0H45.25C46.0139 0 46.6632 0.274306 47.1979 0.822917C47.7326 1.37153 48 2.02778 48 2.79167V16.9167H45.5C44.7917 16.9167 44.2292 17.0694 43.8125 17.375V16.9167H40.125C39.3611 16.9167 38.8194 17.0694 38.5 17.375V16.9167H31.9167V17.375C31.4861 17.0694 30.8819 16.9167 30.1042 16.9167H25.75V17.375C25.4306 17.0694 24.7986 16.9167 23.8542 16.9167H18.9792L17.8542 18.125L16.8125 16.9167H9.54167V24.7917H16.6875L17.8333 23.5625L18.9167 24.7917H23.3125V22.9375H23.75C24.5694 22.9375 25.1944 22.8472 25.625 22.6667V24.7917H29.25V22.7292H29.4167C29.5278 22.7292 29.5972 22.7431 29.625 22.7708C29.6528 22.7986 29.6667 22.8681 29.6667 22.9792V24.7917H40.6875C41.4792 24.7917 42.0903 24.625 42.5208 24.2917V24.7917H46.0208C46.8542 24.7917 47.5139 24.6736 48 24.4375ZM32.2083 19.5625C32.2083 19.8819 32.125 20.1806 31.9583 20.4583C31.7917 20.7361 31.5556 20.9375 31.25 21.0625C31.5972 21.1875 31.8333 21.3681 31.9583 21.6042C32.0833 21.8403 32.1458 22.1597 32.1458 22.5625V23.6875H30.7917V22.75C30.7917 22.2917 30.7083 21.9896 30.5417 21.8438C30.375 21.6979 30.0556 21.625 29.5833 21.625H28.1458V23.6875H26.7917V18.0417H30C30.6667 18.0417 31.2014 18.1458 31.6042 18.3542C32.0069 18.5625 32.2083 18.9653 32.2083 19.5625ZM26.4375 9.83333C26.4375 10.1667 26.3507 10.4722 26.1771 10.75C26.0035 11.0278 25.7708 11.2292 25.4792 11.3542C25.8403 11.4792 26.0799 11.6562 26.1979 11.8854C26.316 12.1146 26.375 12.4375 26.375 12.8542V13.9583H25.0208C25.0208 13.8333 25.0243 13.6493 25.0312 13.4062C25.0382 13.1632 25.0382 12.9896 25.0312 12.8854C25.0243 12.7812 25.0035 12.6528 24.9688 12.5C24.934 12.3472 24.875 12.2361 24.7917 12.1667C24.7083 12.0972 24.5868 12.0382 24.4271 11.9896C24.2674 11.941 24.0625 11.9167 23.8125 11.9167H22.3542V13.9583H21.0208V8.3125L24.2083 8.33333C24.8889 8.33333 25.4306 8.43403 25.8333 8.63542C26.2361 8.83681 26.4375 9.23611 26.4375 9.83333ZM37.4583 22.5208V23.6875H32.9583V18.0417H37.4583V19.2083H34.3125V20.2292H37.3958V21.375H34.3125V22.5L37.4583 22.5208ZM28.5833 8.3125V13.9583H27.2083V8.3125H28.5833ZM43.0208 21.8958C43.0208 23.0903 42.3125 23.6875 40.8958 23.6875H38.2708V22.4792H40.8958C41.3681 22.4792 41.6042 22.3056 41.6042 21.9583C41.6042 21.7361 41.4861 21.5903 41.25 21.5208C41.0139 21.4514 40.7257 21.4167 40.3854 21.4167C40.0451 21.4167 39.7014 21.3924 39.3542 21.3438C39.0069 21.2951 38.7153 21.1389 38.4792 20.875C38.2431 20.6111 38.125 20.2292 38.125 19.7292C38.125 19.1875 38.3056 18.7708 38.6667 18.4792C39.0278 18.1875 39.4861 18.0417 40.0417 18.0417H42.75V19.2292H40.2708C39.7708 19.2292 39.5208 19.4028 39.5208 19.75C39.5208 19.9722 39.6424 20.1146 39.8854 20.1771C40.1285 20.2396 40.4201 20.2674 40.7604 20.2604C41.1007 20.2535 41.441 20.2708 41.7812 20.3125C42.1215 20.3542 42.4132 20.5035 42.6562 20.7604C42.8993 21.0174 43.0208 21.3958 43.0208 21.8958ZM48 20.8542V22.9583C47.6667 23.4444 47.0556 23.6875 46.1667 23.6875H43.5625V22.4792H46.1667C46.625 22.4792 46.8542 22.3056 46.8542 21.9583C46.8542 21.7778 46.7674 21.6458 46.5938 21.5625C46.4201 21.4792 46.2049 21.441 45.9479 21.4479C45.691 21.4549 45.4132 21.441 45.1146 21.4062C44.816 21.3715 44.5382 21.316 44.2812 21.2396C44.0243 21.1632 43.809 20.9965 43.6354 20.7396C43.4618 20.4826 43.375 20.1458 43.375 19.7292C43.375 19.1875 43.559 18.7708 43.9271 18.4792C44.2951 18.1875 44.7569 18.0417 45.3125 18.0417H48V19.2292H45.5417C45.0417 19.2292 44.7917 19.4028 44.7917 19.75C44.7917 20.0278 44.9931 20.1806 45.3958 20.2083C45.7986 20.2361 46.2743 20.2708 46.8229 20.3125C47.3715 20.3542 47.7639 20.5347 48 20.8542ZM44.5625 8.33333V13.9583H42.6458L40.1042 9.72917V13.9583H37.3542L36.8125 12.7083H34.0208L33.5 13.9583H31.9375C30.1458 13.9583 29.25 13.0347 29.25 11.1875C29.25 9.27083 30.1736 8.3125 32.0208 8.3125H33.3333V9.54167C33.2361 9.54167 33.0417 9.53472 32.75 9.52083C32.4583 9.50694 32.2604 9.50347 32.1562 9.51042C32.0521 9.51736 31.8924 9.53125 31.6771 9.55208C31.4618 9.57292 31.3125 9.61806 31.2292 9.6875C31.1458 9.75694 31.0451 9.85069 30.9271 9.96875C30.809 10.0868 30.7292 10.2465 30.6875 10.4479C30.6458 10.6493 30.625 10.8819 30.625 11.1458C30.625 11.6736 30.7188 12.0764 30.9062 12.3542C31.0938 12.6319 31.4375 12.7708 31.9375 12.7708H32.5417L34.4583 8.33333H36.4792L38.75 13.6667V8.33333H40.8125L43.1875 12.25V8.33333H44.5625Z" fill="#F7F9F9"/>
</g>
<defs>
<clipPath id="clip0_66_409">
<rect width="48" height="32" fill="white"/>
</clipPath>
</defs>
</svg>
