<svg width="48" height="32" viewBox="0 0 48 32" fill="none" xmlns="http://www.w3.org/2000/svg">
<g clip-path="url(#clip0_66_407)">
<path d="M6.52083 13.5208C6.52083 14.2292 6.27083 14.8125 5.77083 15.2708C5.36806 15.6319 4.75 15.8125 3.91667 15.8125H3.5625V11.2292H3.91667C4.76389 11.2292 5.38194 11.4167 5.77083 11.7917C6.27083 12.2222 6.52083 12.7986 6.52083 13.5208ZM43.5208 12.1667C43.5208 12.8889 43.0764 13.25 42.1875 13.25H41.7917V11.1458H42.2083C43.0833 11.1458 43.5208 11.4861 43.5208 12.1667ZM7.91667 13.5208C7.91667 12.4931 7.56944 11.6562 6.875 11.0104C6.18056 10.3646 5.28472 10.0417 4.1875 10.0417H2.20833V16.9792H4.1875C5.21528 16.9792 6.04167 16.7153 6.66667 16.1875C7.5 15.4792 7.91667 14.5903 7.91667 13.5208ZM8.54167 16.9792H9.89583V10.0417H8.54167V16.9792ZM15.2083 14.875C15.2083 14.3194 15.066 13.8889 14.7812 13.5833C14.4965 13.2778 13.9722 12.9861 13.2083 12.7083C12.8056 12.5694 12.5312 12.4375 12.3854 12.3125C12.2396 12.1875 12.1667 12.0278 12.1667 11.8333C12.1667 11.6111 12.2604 11.4271 12.4479 11.2812C12.6354 11.1354 12.875 11.0625 13.1667 11.0625C13.5694 11.0625 13.9375 11.25 14.2708 11.625L14.9792 10.7083C14.4097 10.1944 13.7292 9.9375 12.9375 9.9375C12.3264 9.9375 11.8125 10.1285 11.3958 10.5104C10.9792 10.8924 10.7708 11.3611 10.7708 11.9167C10.7708 12.4028 10.8958 12.7882 11.1458 13.0729C11.3958 13.3576 11.8403 13.6111 12.4792 13.8333C12.9931 14.0139 13.3056 14.1458 13.4167 14.2292C13.6806 14.3958 13.8125 14.6319 13.8125 14.9375C13.8125 15.2153 13.7153 15.4479 13.5208 15.6354C13.3264 15.8229 13.0764 15.9167 12.7708 15.9167C12.1042 15.9167 11.6111 15.6111 11.2917 15L10.4167 15.8333C11.0278 16.7222 11.8264 17.1667 12.8125 17.1667C13.5208 17.1667 14.0972 16.9549 14.5417 16.5312C14.9861 16.1076 15.2083 15.5556 15.2083 14.875ZM21 16.75V15.1458C20.4861 15.6597 19.9444 15.9167 19.375 15.9167C18.6944 15.9167 18.1354 15.691 17.6979 15.2396C17.2604 14.7882 17.0417 14.2153 17.0417 13.5208C17.0417 12.8542 17.2604 12.2882 17.6979 11.8229C18.1354 11.3576 18.6736 11.125 19.3125 11.125C19.9097 11.125 20.4722 11.3889 21 11.9167V10.3125C20.4444 10.0347 19.8889 9.89583 19.3333 9.89583C18.3056 9.89583 17.434 10.2465 16.7188 10.9479C16.0035 11.6493 15.6458 12.5069 15.6458 13.5208C15.6458 14.5347 16 15.3924 16.7083 16.0938C17.4167 16.7951 18.2847 17.1458 19.3125 17.1458C19.8958 17.1458 20.4583 17.0139 21 16.75ZM46.6667 29.3333V18.3542C45.7639 18.9097 44.7604 19.4931 43.6562 20.1042C42.5521 20.7153 40.9028 21.5278 38.7083 22.5417C36.5139 23.5556 34.2257 24.5104 31.8438 25.4062C29.4618 26.3021 26.5625 27.2361 23.1458 28.2083C19.7292 29.1806 16.2292 30 12.6458 30.6667H45.3333C45.6944 30.6667 46.0069 30.5347 46.2708 30.2708C46.5347 30.0069 46.6667 29.6944 46.6667 29.3333ZM28.9375 13.5625C28.9375 12.5208 28.5694 11.6319 27.8333 10.8958C27.0972 10.1597 26.2083 9.79167 25.1667 9.79167C24.125 9.79167 23.2361 10.1597 22.5 10.8958C21.7639 11.6319 21.3958 12.5208 21.3958 13.5625C21.3958 14.6042 21.7639 15.4931 22.5 16.2292C23.2361 16.9653 24.125 17.3333 25.1667 17.3333C26.2083 17.3333 27.0972 16.9653 27.8333 16.2292C28.5694 15.4931 28.9375 14.6042 28.9375 13.5625ZM32.1042 17.1667L35.1042 10.0417H33.625L31.75 14.7083L29.8958 10.0417H28.4167L31.375 17.1667H32.1042ZM35.7083 16.9792H39.5417V15.8125H37.0625V13.9375H39.4583V12.7708H37.0625V11.2292H39.5417V10.0417H35.7083V16.9792ZM43.8542 16.9792H45.5208L43.3333 14.0625C44.3889 13.8403 44.9167 13.1875 44.9167 12.1042C44.9167 11.4514 44.7014 10.9444 44.2708 10.5833C43.8403 10.2222 43.2361 10.0417 42.4583 10.0417H40.4375V16.9792H41.7917V14.2083H41.9792L43.8542 16.9792ZM48 2.79167V29.2083C48 29.9861 47.7326 30.6458 47.1979 31.1875C46.6632 31.7292 46.0139 32 45.25 32H2.75C1.98611 32 1.33681 31.7292 0.802083 31.1875C0.267361 30.6458 0 29.9861 0 29.2083V2.79167C0 2.01389 0.267361 1.35417 0.802083 0.8125C1.33681 0.270833 1.98611 0 2.75 0H45.25C46.0139 0 46.6632 0.270833 47.1979 0.8125C47.7326 1.35417 48 2.01389 48 2.79167Z" fill="#F7F9F9"/>
</g>
<defs>
<clipPath id="clip0_66_407">
<rect width="48" height="32" fill="white"/>
</clipPath>
</defs>
</svg>
