<svg width="32" height="32" viewBox="0 0 32 32" fill="none" xmlns="http://www.w3.org/2000/svg">
<path d="M18.1802 2.51553C18.2992 2.51553 18.3677 2.52053 18.3677 2.52053H20.9792L20.9657 5.52053H18.3717C16.9442 5.52053 16.9772 6.7395 16.9772 6.7395V11.4955H22.0282L21.3232 14.4915H16.9607V29.4845H13.9637L13.9617 14.4915H9.9802L9.9722 11.4955H13.9632V6.8335C13.9636 2.7685 17.3397 2.5155 18.1802 2.5155V2.51553ZM20.9792 2.5205H20.9842H20.9792ZM18.1802 0.515503C17.4612 0.515503 16.0561 0.634534 14.7251 1.43653C13.4651 2.19453 11.9636 3.747 11.9636 6.83303V9.495H9.97264C9.44114 9.495 8.93164 9.707 8.55564 10.083C8.36986 10.2696 8.22274 10.4909 8.1227 10.7344C8.02266 10.9779 7.97168 11.2388 7.97267 11.502L7.98067 14.498C7.98467 15.5995 8.87917 16.491 9.98067 16.491H11.9622L11.9642 29.484C11.9642 30.5885 12.8597 31.484 13.9642 31.484H16.9612C18.0657 31.484 18.9612 30.5885 18.9612 29.484V16.491H21.3237C22.2112 16.491 22.9927 15.906 23.2427 15.0546L23.9477 12.0585C24.1252 11.4541 24.0071 10.8006 23.6292 10.297C23.4432 10.048 23.2017 9.84589 22.9238 9.70666C22.6459 9.56744 22.3394 9.49497 22.0286 9.49503H18.9776V7.52153L20.9661 7.52053C22.0666 7.52053 22.9611 6.63103 22.9661 5.52953L22.9796 2.63103C22.9816 2.59424 22.9826 2.55739 22.9826 2.52053C22.9826 1.41603 22.0891 0.520534 20.9847 0.520534H18.4242C18.3667 0.517534 18.2837 0.515534 18.1802 0.515503Z" fill="url(#paint0_linear_294_2551)"/>
<defs>
<linearGradient id="paint0_linear_294_2551" x1="24.0286" y1="31.484" x2="-0.628932" y2="10.7397" gradientUnits="userSpaceOnUse">
<stop stop-color="#C251E9"/>
<stop offset="1" stop-color="#6BE7D8"/>
</linearGradient>
</defs>
</svg>
