<svg width="32" height="32" viewBox="0 0 32 32" fill="none" xmlns="http://www.w3.org/2000/svg">
<g clip-path="url(#clip0_294_2545)">
<path d="M15.9688 0.125C20.2812 0.125 20.8125 0.15625 22.5 0.21875C24.1562 0.28125 25.3125 0.5625 26.3438 0.96875C27.4062 1.375 28.2812 1.90625 29.1562 2.78125C30.0312 3.65625 30.5625 4.53125 30.9688 5.59375C31.375 6.625 31.6562 7.78125 31.7188 9.4375C31.7812 11.125 31.8125 11.6562 31.8125 15.9688C31.8125 20.2812 31.7812 20.8125 31.7188 22.5C31.6562 24.1562 31.375 25.3125 30.9688 26.3438C30.5625 27.4062 30.0312 28.2812 29.1562 29.1562C28.2812 30.0312 27.4062 30.5625 26.3438 30.9688C25.3125 31.375 24.1562 31.6562 22.5 31.7188C20.8125 31.7812 20.2812 31.8125 15.9688 31.8125C11.6562 31.8125 11.125 31.7812 9.4375 31.7188C7.78125 31.6562 6.625 31.375 5.59375 30.9688C4.53125 30.5625 3.65625 30.0312 2.78125 29.1562C1.90625 28.2812 1.375 27.4062 0.96875 26.3438C0.5625 25.3125 0.28125 24.1562 0.21875 22.5C0.15625 20.8125 0.125 20.2812 0.125 15.9688C0.125 11.6562 0.15625 11.125 0.21875 9.4375C0.28125 7.78125 0.5625 6.625 0.96875 5.59375C1.375 4.53125 1.90625 3.65625 2.78125 2.78125C3.65625 1.90625 4.53125 1.375 5.59375 0.96875C6.625 0.5625 7.78125 0.28125 9.4375 0.21875C11.125 0.15625 11.6562 0.125 15.9688 0.125ZM15.9688 2.1875C11.4688 2.1875 10.9375 2.21875 9.1875 2.28125C7.5625 2.34375 6.65625 2.65625 6.0625 2.875C4.53125 3.5 3.5 4.53125 2.875 6.0625C2.65625 6.65625 2.34375 7.5625 2.28125 9.1875C2.21875 10.9375 2.1875 11.4688 2.1875 15.9688C2.1875 20.4688 2.21875 21 2.28125 22.75C2.34375 24.375 2.65625 25.2812 2.875 25.875C3.5 27.4062 4.53125 28.4375 6.0625 29.0625C6.65625 29.2812 7.5625 29.5938 9.1875 29.6562C10.9375 29.7188 11.4688 29.75 15.9688 29.75C20.4688 29.75 21 29.7188 22.75 29.6562C24.375 29.5938 25.2812 29.2812 25.875 29.0625C27.4062 28.4375 28.4375 27.4062 29.0625 25.875C29.2812 25.2812 29.5938 24.375 29.6562 22.75C29.7188 21 29.75 20.4688 29.75 15.9688C29.75 11.4688 29.7188 10.9375 29.6562 9.1875C29.5938 7.5625 29.2812 6.65625 29.0625 6.0625C28.4375 4.53125 27.4062 3.5 25.875 2.875C25.2812 2.65625 24.375 2.34375 22.75 2.28125C21 2.21875 20.4688 2.1875 15.9688 2.1875ZM15.9688 22.3125C19.4688 22.3125 22.3125 19.4688 22.3125 15.9688C22.3125 12.4688 19.4688 9.625 15.9688 9.625C12.4688 9.625 9.625 12.4688 9.625 15.9688C9.625 19.4688 12.4688 22.3125 15.9688 22.3125ZM15.9688 7.84375C20.4688 7.84375 24.0938 11.4688 24.0938 15.9688C24.0938 20.4688 20.4688 24.0938 15.9688 24.0938C11.4688 24.0938 7.84375 20.4688 7.84375 15.9688C7.84375 11.4688 11.4688 7.84375 15.9688 7.84375ZM26.3438 7.53125C26.3438 8.59375 25.4688 9.40625 24.4062 9.40625C23.3438 9.40625 22.5312 8.59375 22.5312 7.53125C22.5312 6.46875 23.3438 5.59375 24.4062 5.59375C25.4688 5.59375 26.3438 6.46875 26.3438 7.53125Z" fill="url(#paint0_linear_294_2545)"/>
</g>
<defs>
<linearGradient id="paint0_linear_294_2545" x1="31.8125" y1="31.8125" x2="8.93776" y2="-5.30598" gradientUnits="userSpaceOnUse">
<stop stop-color="#C251E9"/>
<stop offset="1" stop-color="#6BE7D8"/>
</linearGradient>
<clipPath id="clip0_294_2545">
<rect width="32" height="32" fill="white"/>
</clipPath>
</defs>
</svg>
