<svg width="32" height="32" viewBox="0 0 32 32" fill="none" xmlns="http://www.w3.org/2000/svg">
<g clip-path="url(#clip0_294_2549)">
<path d="M31.1811 31.326H24.6803C24.2205 31.326 23.8488 30.9544 23.8488 30.4945V20.0252C23.8488 16.4347 21.9969 16.4347 21.3858 16.4347C19.7417 16.4347 19.0425 17.7323 18.8158 18.293C18.7087 18.545 18.6582 18.9733 18.6582 19.5718V30.5009C18.6582 30.9607 18.2866 31.3324 17.8268 31.3324H11.3197C11.0993 31.3324 10.8851 31.2442 10.7276 31.0867C10.5701 30.9293 10.4819 30.715 10.4882 30.4946C10.4882 30.3182 10.5764 12.7623 10.4882 10.967C10.4756 10.7402 10.5575 10.5198 10.715 10.356C10.8725 10.1922 11.0867 10.0977 11.3197 10.0977H17.8268C18.2866 10.0977 18.6583 10.4693 18.6583 10.9292V11.4205C19.7543 10.4442 21.3354 9.63784 23.6913 9.63784C28.9008 9.63784 32.0126 13.241 32.0126 19.2756V30.4945C32.0126 30.9544 31.6409 31.326 31.1811 31.326ZM25.5118 29.6631L30.3559 29.6629V19.2755C30.3559 14.2047 27.9307 11.3007 23.6977 11.3007C20.8693 11.3007 19.4961 12.7118 18.6331 14.0031C18.5323 14.3433 18.211 14.5953 17.8331 14.5953H17.789C17.4866 14.5953 17.2095 14.4315 17.0646 14.1669C16.9513 13.959 16.926 13.7197 17.0016 13.4992V11.7543H12.1701C12.2142 15.2252 12.1701 26.4567 12.1575 29.6567H16.9953V19.5654C16.9953 18.7276 17.0835 18.1229 17.2725 17.663C18.0032 15.8552 19.5402 14.7654 21.3796 14.7654C24 14.7654 25.5055 16.6804 25.5055 20.0189V29.663H25.5119L25.5118 29.6631ZM7.72288 31.3259H1.21578C0.755937 31.3259 0.384313 30.9542 0.384313 30.4944V10.9291C0.384313 10.4693 0.755937 10.0976 1.21578 10.0976H7.72288C8.18272 10.0976 8.55434 10.4693 8.55434 10.9291V30.4944C8.55434 30.9543 8.18272 31.3259 7.72288 31.3259V31.3259ZM2.04731 29.663H6.89138V11.7606H2.04734V29.6629L2.04731 29.663ZM4.47247 9.08972L4.42834 9.08969C1.86456 9.08969 0 7.31331 0 4.86922C0 2.43144 1.89606 0.655029 4.51653 0.655029C7.09291 0.655029 8.93231 2.381 8.98272 4.85031C8.98272 7.31331 7.08666 9.08969 4.47247 9.08969V9.08972ZM4.51653 2.32434C2.80944 2.32434 1.663 3.35112 1.663 4.87556C1.663 6.37475 2.79688 7.42672 4.42838 7.42672H4.47244C6.17325 7.42672 7.31969 6.39994 7.31969 4.87553C7.28819 3.33222 6.18584 2.32434 4.51653 2.32434Z" fill="url(#paint0_linear_294_2549)"/>
</g>
<defs>
<linearGradient id="paint0_linear_294_2549" x1="32.0126" y1="31.3324" x2="10.3027" y2="-5.4293" gradientUnits="userSpaceOnUse">
<stop stop-color="#C251E9"/>
<stop offset="1" stop-color="#6BE7D8"/>
</linearGradient>
<clipPath id="clip0_294_2549">
<rect width="32" height="32" fill="white"/>
</clipPath>
</defs>
</svg>
