<svg width="28" height="29" viewBox="0 0 28 29" fill="none" xmlns="http://www.w3.org/2000/svg">
<g clip-path="url(#clip0_191_1845)">
<path d="M14.0702 16.5144C13.6515 16.5176 13.2458 16.6609 12.918 16.9215C12.5902 17.182 12.3591 17.5449 12.2615 17.9521C12.164 18.3593 12.2056 18.7875 12.3798 19.1684C12.5539 19.5492 12.8506 19.8607 13.2224 20.0533V22.2777H14.778V20.1233C15.1796 19.9587 15.5116 19.6599 15.7174 19.2778C15.9233 18.8957 15.9901 18.454 15.9066 18.0281C15.8231 17.6022 15.5943 17.2185 15.2594 16.9424C14.9245 16.6664 14.5042 16.5151 14.0702 16.5144Z" fill="url(#paint0_linear_191_1845)"/>
<path d="M20.2221 12.1666V8.83767C20.2555 7.15136 19.6196 5.52048 18.4535 4.30189C17.2874 3.08331 15.686 2.37626 13.9999 2.33545C12.3137 2.37626 10.7124 3.08331 9.5463 4.30189C8.3802 5.52048 7.74427 7.15136 7.77767 8.83767V12.1666H5.44434V25.3888C5.44434 25.8013 5.60822 26.197 5.89995 26.4887C6.19167 26.7805 6.58733 26.9443 6.99989 26.9443H20.9999C21.4124 26.9443 21.8081 26.7805 22.0998 26.4887C22.3916 26.197 22.5554 25.8013 22.5554 25.3888V12.1666H20.2221ZM9.33322 8.83767C9.29969 7.56386 9.7717 6.32855 10.6461 5.40166C11.5205 4.47478 12.7263 3.93167 13.9999 3.89101C15.2735 3.93167 16.4792 4.47478 17.3537 5.40166C18.2281 6.32855 18.7001 7.56386 18.6666 8.83767V12.1666H9.33322V8.83767ZM6.99989 25.3888V13.7221H20.9999V25.3888H6.99989Z" fill="url(#paint1_linear_191_1845)"/>
</g>
<defs>
<linearGradient id="paint0_linear_191_1845" x1="15.9416" y1="22.2777" x2="11.2898" y2="17.3902" gradientUnits="userSpaceOnUse">
<stop stop-color="#C251E9"/>
<stop offset="1" stop-color="#6BE7D8"/>
</linearGradient>
<linearGradient id="paint1_linear_191_1845" x1="22.5554" y1="26.9443" x2="2.81222" y2="4.66829" gradientUnits="userSpaceOnUse">
<stop stop-color="#C251E9"/>
<stop offset="1" stop-color="#6BE7D8"/>
</linearGradient>
<clipPath id="clip0_191_1845">
<rect width="28" height="28" fill="white" transform="translate(0 0.5)"/>
</clipPath>
</defs>
</svg>
