<svg width="48" height="32" viewBox="0 0 48 32" fill="none" xmlns="http://www.w3.org/2000/svg">
<g clip-path="url(#clip0_66_399)">
<path d="M15.5208 16.2083C15.5208 16.7222 15.3438 17.1493 14.9896 17.4896C14.6354 17.8299 14.2014 18 13.6875 18C13.2847 18 12.9618 17.8889 12.7188 17.6667C12.4757 17.4444 12.3542 17.1389 12.3542 16.75C12.3542 16.2361 12.5278 15.8021 12.875 15.4479C13.2222 15.0938 13.6528 14.9167 14.1667 14.9167C14.5556 14.9167 14.8785 15.0312 15.1354 15.2604C15.3924 15.4896 15.5208 15.8056 15.5208 16.2083ZM31.875 13.1042C31.875 13.6875 31.7222 14.0833 31.4167 14.2917C31.1111 14.5 30.6528 14.6042 30.0417 14.6042L29.375 14.625L29.7292 12.3958C29.7569 12.2431 29.8472 12.1667 30 12.1667H30.375C30.6806 12.1667 30.9236 12.1806 31.1042 12.2083C31.2847 12.2361 31.4583 12.3229 31.625 12.4688C31.7917 12.6146 31.875 12.8264 31.875 13.1042ZM39.1875 16.2083C39.1875 16.7083 39.0104 17.1319 38.6562 17.4792C38.3021 17.8264 37.875 18 37.375 18C36.9722 18 36.6458 17.8889 36.3958 17.6667C36.1458 17.4444 36.0208 17.1389 36.0208 16.75C36.0208 16.2361 36.1944 15.8021 36.5417 15.4479C36.8889 15.0938 37.3194 14.9167 37.8333 14.9167C38.2222 14.9167 38.5451 15.0312 38.8021 15.2604C39.059 15.4896 39.1875 15.8056 39.1875 16.2083ZM10.6875 12.6458C10.6875 11.8264 10.4201 11.2326 9.88542 10.8646C9.35069 10.4965 8.65278 10.3125 7.79167 10.3125H4.45833C4.19444 10.3125 4.04861 10.4444 4.02083 10.7083L2.66667 19.2083C2.65278 19.2917 2.67361 19.3681 2.72917 19.4375C2.78472 19.5069 2.85417 19.5417 2.9375 19.5417H4.52083C4.79861 19.5417 4.95139 19.4097 4.97917 19.1458L5.35417 16.8542C5.36806 16.7431 5.41667 16.6528 5.5 16.5833C5.58333 16.5139 5.6875 16.4688 5.8125 16.4479C5.9375 16.4271 6.05556 16.4167 6.16667 16.4167C6.27778 16.4167 6.40972 16.4236 6.5625 16.4375C6.71528 16.4514 6.8125 16.4583 6.85417 16.4583C8.04861 16.4583 8.98611 16.1215 9.66667 15.4479C10.3472 14.7743 10.6875 13.8403 10.6875 12.6458ZM17.125 19.1458L17.9792 13.7083C17.9931 13.625 17.9722 13.5486 17.9167 13.4792C17.8611 13.4097 17.7917 13.375 17.7083 13.375H16.125C15.9306 13.375 15.8125 13.6042 15.7708 14.0625C15.3958 13.5069 14.7361 13.2292 13.7917 13.2292C12.7917 13.2292 11.941 13.6042 11.2396 14.3542C10.5382 15.1042 10.1875 15.9861 10.1875 17C10.1875 17.8194 10.4271 18.4722 10.9062 18.9583C11.3854 19.4444 12.0278 19.6875 12.8333 19.6875C13.2222 19.6875 13.625 19.6042 14.0417 19.4375C14.4583 19.2708 14.7917 19.0486 15.0417 18.7708C14.9861 18.9375 14.9583 19.0833 14.9583 19.2083C14.9583 19.4306 15.0486 19.5417 15.2292 19.5417H16.6667C16.9306 19.5417 17.0833 19.4097 17.125 19.1458ZM26.4375 13.6667C26.4375 13.5972 26.4097 13.5312 26.3542 13.4688C26.2986 13.4062 26.2361 13.375 26.1667 13.375H24.5625C24.4097 13.375 24.2847 13.4444 24.1875 13.5833L21.9792 16.8333L21.0625 13.7083C20.9931 13.4861 20.8403 13.375 20.6042 13.375H19.0417C18.9722 13.375 18.9097 13.4062 18.8542 13.4688C18.7986 13.5312 18.7708 13.5972 18.7708 13.6667C18.7708 13.6944 18.9062 14.1042 19.1771 14.8958C19.4479 15.6875 19.7396 16.5417 20.0521 17.4583C20.3646 18.375 20.5278 18.8611 20.5417 18.9167C19.4028 20.4722 18.8333 21.3056 18.8333 21.4167C18.8333 21.5972 18.9236 21.6875 19.1042 21.6875H20.7083C20.8611 21.6875 20.9861 21.6181 21.0833 21.4792L26.3958 13.8125C26.4236 13.7847 26.4375 13.7361 26.4375 13.6667ZM34.3542 12.6458C34.3542 11.8264 34.0868 11.2326 33.5521 10.8646C33.0174 10.4965 32.3194 10.3125 31.4583 10.3125H28.1458C27.8681 10.3125 27.7153 10.4444 27.6875 10.7083L26.3333 19.2083C26.3194 19.2917 26.3403 19.3681 26.3958 19.4375C26.4514 19.5069 26.5208 19.5417 26.6042 19.5417H28.3125C28.4792 19.5417 28.5903 19.4514 28.6458 19.2708L29.0208 16.8542C29.0347 16.7431 29.0833 16.6528 29.1667 16.5833C29.25 16.5139 29.3542 16.4688 29.4792 16.4479C29.6042 16.4271 29.7222 16.4167 29.8333 16.4167C29.9444 16.4167 30.0764 16.4236 30.2292 16.4375C30.3819 16.4514 30.4792 16.4583 30.5208 16.4583C31.7153 16.4583 32.6528 16.1215 33.3333 15.4479C34.0139 14.7743 34.3542 13.8403 34.3542 12.6458ZM40.7917 19.1458L41.6458 13.7083C41.6597 13.625 41.6389 13.5486 41.5833 13.4792C41.5278 13.4097 41.4583 13.375 41.375 13.375H39.7917C39.5972 13.375 39.4792 13.6042 39.4375 14.0625C39.0764 13.5069 38.4167 13.2292 37.4583 13.2292C36.4583 13.2292 35.6076 13.6042 34.9062 14.3542C34.2049 15.1042 33.8542 15.9861 33.8542 17C33.8542 17.8194 34.0938 18.4722 34.5729 18.9583C35.0521 19.4444 35.6944 19.6875 36.5 19.6875C36.9028 19.6875 37.3125 19.6042 37.7292 19.4375C38.1458 19.2708 38.4722 19.0486 38.7083 18.7708C38.7083 18.7847 38.6944 18.8472 38.6667 18.9583C38.6389 19.0694 38.625 19.1528 38.625 19.2083C38.625 19.4306 38.7153 19.5417 38.8958 19.5417H40.3333C40.5972 19.5417 40.75 19.4097 40.7917 19.1458ZM45.3333 10.625V10.6042C45.3333 10.4097 45.2431 10.3125 45.0625 10.3125H43.5208C43.3681 10.3125 43.2778 10.3889 43.25 10.5417L41.8958 19.2083L41.875 19.25C41.875 19.3194 41.9028 19.3854 41.9583 19.4479C42.0139 19.5104 42.0833 19.5417 42.1667 19.5417H43.5417C43.8056 19.5417 43.9514 19.4097 43.9792 19.1458L45.3333 10.625ZM8.16667 13.4167C8.09722 13.9028 7.91667 14.2222 7.625 14.375C7.33333 14.5278 6.91667 14.6042 6.375 14.6042L5.6875 14.625L6.04167 12.3958C6.06944 12.2431 6.15972 12.1667 6.3125 12.1667H6.70833C7.26389 12.1667 7.66667 12.2465 7.91667 12.4062C8.16667 12.566 8.25 12.9028 8.16667 13.4167ZM48 2.66667V29.3333C48 30.0556 47.7361 30.6806 47.2083 31.2083C46.6806 31.7361 46.0556 32 45.3333 32H2.66667C1.94444 32 1.31944 31.7361 0.791667 31.2083C0.263889 30.6806 0 30.0556 0 29.3333V2.66667C0 1.94444 0.263889 1.31944 0.791667 0.791667C1.31944 0.263889 1.94444 0 2.66667 0H45.3333C46.0556 0 46.6806 0.263889 47.2083 0.791667C47.7361 1.31944 48 1.94444 48 2.66667Z" fill="#F7F9F9"/>
</g>
<defs>
<clipPath id="clip0_66_399">
<rect width="48" height="32" fill="white"/>
</clipPath>
</defs>
</svg>
