<svg width="21" height="21" viewBox="0 0 21 21" fill="none" xmlns="http://www.w3.org/2000/svg">
<g clip-path="url(#clip0_243_377)">
<path d="M9.26861 3.30564C10.472 3.30454 11.6487 3.66038 12.6498 4.32816C13.651 4.99594 14.4316 5.94564 14.8928 7.05713C15.3541 8.16861 15.4754 9.39194 15.2413 10.5724C15.0072 11.7528 14.4282 12.8372 13.5777 13.6886C12.7271 14.5399 11.6432 15.1198 10.463 15.355C9.28281 15.5902 8.05937 15.47 6.94746 15.0098C5.83555 14.5495 4.88514 13.7698 4.21645 12.7693C3.54776 11.7687 3.19083 10.5924 3.19083 9.38897C3.19813 7.77878 3.84063 6.23653 4.9787 5.09742C6.11677 3.95831 7.65843 3.3144 9.26861 3.30564M9.26861 2.16675C7.84019 2.16675 6.44385 2.59032 5.25616 3.38391C4.06847 4.1775 3.14278 5.30546 2.59615 6.62515C2.04952 7.94483 1.90649 9.39698 2.18516 10.798C2.46383 12.1989 3.15168 13.4858 4.16173 14.4959C5.17178 15.5059 6.45865 16.1937 7.85963 16.4724C9.2606 16.7511 10.7127 16.6081 12.0324 16.0614C13.3521 15.5148 14.4801 14.5891 15.2737 13.4014C16.0673 12.2137 16.4908 10.8174 16.4908 9.38897C16.4908 7.47352 15.7299 5.63652 14.3755 4.28209C13.0211 2.92766 11.1841 2.16675 9.26861 2.16675Z" fill="url(#paint0_linear_243_377)"/>
<path d="M19.6407 18.9945L15.5462 14.8723L14.7573 15.6556L18.8518 19.7779C18.9032 19.8297 18.9643 19.8708 19.0317 19.899C19.099 19.9272 19.1713 19.9418 19.2442 19.9421C19.3172 19.9423 19.3896 19.9282 19.4571 19.9005C19.5247 19.8728 19.5861 19.8321 19.6379 19.7806C19.6897 19.7292 19.7308 19.6681 19.759 19.6007C19.7872 19.5334 19.8018 19.4612 19.8021 19.3882C19.8023 19.3152 19.7882 19.2428 19.7605 19.1753C19.7328 19.1078 19.6921 19.0463 19.6407 18.9945Z" fill="url(#paint1_linear_243_377)"/>
</g>
<defs>
<linearGradient id="paint0_linear_243_377" x1="16.4908" y1="16.6112" x2="6.0636" y2="-0.308911" gradientUnits="userSpaceOnUse">
<stop stop-color="#C251E9"/>
<stop offset="1" stop-color="#6BE7D8"/>
</linearGradient>
<linearGradient id="paint1_linear_243_377" x1="19.8021" y1="19.9421" x2="16.1342" y2="14.0196" gradientUnits="userSpaceOnUse">
<stop stop-color="#C251E9"/>
<stop offset="1" stop-color="#6BE7D8"/>
</linearGradient>
<clipPath id="clip0_243_377">
<rect width="20" height="20" fill="white" transform="translate(0.196289 0.5)"/>
</clipPath>
</defs>
</svg>
