<svg width="48" height="32" viewBox="0 0 48 32" fill="none" xmlns="http://www.w3.org/2000/svg">
<g clip-path="url(#clip0_66_401)">
<path d="M33.2708 16.1458C33.2708 17.1042 33.125 17.8403 32.8333 18.3542C32.5694 18.8403 32.2083 19.0833 31.75 19.0833C31.4306 19.0833 31.1458 19.0208 30.8958 18.8958V14.2292C31.2986 13.8125 31.6944 13.6042 32.0833 13.6042C32.875 13.6042 33.2708 14.4514 33.2708 16.1458ZM42.3958 15.3958H40.1042C40.1875 14.0347 40.5764 13.3542 41.2708 13.3542C41.9792 13.3542 42.3542 14.0347 42.3958 15.3958ZM9.91667 18.2083C9.91667 17.3889 9.6875 16.7535 9.22917 16.3021C8.77083 15.8507 8.06944 15.4514 7.125 15.1042C6.625 14.9236 6.26389 14.7569 6.04167 14.6042C5.81944 14.4514 5.70833 14.2778 5.70833 14.0833C5.70833 13.7222 5.97222 13.5417 6.5 13.5417C7.30556 13.5417 8.16667 13.7708 9.08333 14.2292L9.45833 11.8958C8.52778 11.4514 7.49306 11.2292 6.35417 11.2292C5.28472 11.2292 4.43056 11.4931 3.79167 12.0208C3.125 12.5625 2.79167 13.3194 2.79167 14.2917C2.79167 15.0972 3.01736 15.7257 3.46875 16.1771C3.92014 16.6285 4.61111 17.0208 5.54167 17.3542C6.08333 17.5486 6.46181 17.7257 6.67708 17.8854C6.89236 18.0451 7 18.2361 7 18.4583C7 18.8889 6.66667 19.1042 6 19.1042C5.59722 19.1042 5.11111 19.0174 4.54167 18.8438C3.97222 18.6701 3.47222 18.4583 3.04167 18.2083L2.66667 20.5625C3.66667 21.1319 4.83333 21.4167 6.16667 21.4167C7.29167 21.4167 8.1875 21.1597 8.85417 20.6458C9.5625 20.0764 9.91667 19.2639 9.91667 18.2083ZM16.0625 13.7292L16.4583 11.4167H14.4583V8.60417L11.7708 9.04167L11.3958 11.4167L10.4375 11.5833L10.0833 13.7292H11.375V18.2917C11.375 19.4583 11.6806 20.2917 12.2917 20.7917C12.8194 21.2083 13.5903 21.4167 14.6042 21.4167C15.0486 21.4167 15.5972 21.3403 16.25 21.1875V18.7292C15.8056 18.8264 15.5 18.875 15.3333 18.875C14.75 18.875 14.4583 18.5278 14.4583 17.8333V13.7292H16.0625ZM22.6458 14.25V11.3542C22.4375 11.3125 22.2431 11.2917 22.0625 11.2917C21.6181 11.2917 21.2326 11.4028 20.9062 11.625C20.5799 11.8472 20.3472 12.1667 20.2083 12.5833L20 11.4167H17.2708V21.2292H20.3958V14.8542C20.7569 14.4236 21.3264 14.2083 22.1042 14.2083C22.3264 14.2083 22.5069 14.2222 22.6458 14.25ZM23.4167 21.2292H26.5417V11.4167H23.4167V21.2292ZM36.375 16.0417C36.375 14.3472 36.0625 13.1042 35.4375 12.3125C34.8819 11.5903 34.1111 11.2292 33.125 11.2292C32.2361 11.2292 31.4236 11.6181 30.6875 12.3958L30.5208 11.4167H27.7708V24.8542L30.8958 24.3333V21.1875C31.3958 21.3403 31.8681 21.4167 32.3125 21.4167C33.4653 21.4167 34.3958 21.0278 35.1042 20.25C35.9514 19.3472 36.375 17.9444 36.375 16.0417ZM26.625 8.79167C26.625 8.33333 26.4653 7.94444 26.1458 7.625C25.8264 7.30556 25.4375 7.14583 24.9792 7.14583C24.5208 7.14583 24.1319 7.30556 23.8125 7.625C23.4931 7.94444 23.3333 8.33333 23.3333 8.79167C23.3333 9.25 23.4931 9.64236 23.8125 9.96875C24.1319 10.2951 24.5208 10.4583 24.9792 10.4583C25.4375 10.4583 25.8264 10.2951 26.1458 9.96875C26.4653 9.64236 26.625 9.25 26.625 8.79167ZM45.3333 16.2292C45.3333 14.6597 45 13.4375 44.3333 12.5625C43.6389 11.6736 42.6389 11.2292 41.3333 11.2292C40 11.2292 38.9479 11.6875 38.1771 12.6042C37.4062 13.5208 37.0208 14.7708 37.0208 16.3542C37.0208 18.1319 37.4583 19.4375 38.3333 20.2708C39.0972 21.0347 40.2153 21.4167 41.6875 21.4167C43.0903 21.4167 44.2014 21.1389 45.0208 20.5833L44.6875 18.4375C43.8958 18.8681 43.0069 19.0833 42.0208 19.0833C41.4236 19.0833 40.9861 18.9514 40.7083 18.6875C40.3889 18.4236 40.1944 17.9653 40.125 17.3125H45.2917C45.3194 17.1181 45.3333 16.7569 45.3333 16.2292ZM48 2.66667V29.3333C48 30.0556 47.7361 30.6806 47.2083 31.2083C46.6806 31.7361 46.0556 32 45.3333 32H2.66667C1.94444 32 1.31944 31.7361 0.791667 31.2083C0.263889 30.6806 0 30.0556 0 29.3333V2.66667C0 1.94444 0.263889 1.31944 0.791667 0.791667C1.31944 0.263889 1.94444 0 2.66667 0H45.3333C46.0556 0 46.6806 0.263889 47.2083 0.791667C47.7361 1.31944 48 1.94444 48 2.66667Z" fill="#F7F9F9"/>
</g>
<defs>
<clipPath id="clip0_66_401">
<rect width="48" height="32" fill="white"/>
</clipPath>
</defs>
</svg>
