<svg width="32" height="32" viewBox="0 0 32 32" fill="none" xmlns="http://www.w3.org/2000/svg">
<g clip-path="url(#clip0_294_2547)">
<path d="M21.3875 4.95898C23.04 4.95898 24.5319 5.63511 25.5829 6.72061C26.8904 6.46761 28.1229 6.00661 29.2305 5.36811C28.802 6.66914 27.8905 7.76061 26.705 8.45111C27.865 8.31461 28.9755 8.01661 30.006 7.57111C29.2335 8.68811 28.261 9.67161 27.138 10.4576C27.1485 10.6961 27.1545 10.9371 27.1545 11.1771C27.1545 18.5436 21.373 27.04 10.801 27.04C7.55603 27.04 4.53353 26.1141 1.99157 24.5331C2.44631 24.586 2.90375 24.6123 3.36157 24.612C6.05407 24.612 8.53354 23.7215 10.501 22.2245C7.98453 22.1815 5.86053 20.568 5.13203 18.3545C5.48882 18.4214 5.85104 18.455 6.21403 18.455C6.73653 18.455 7.24553 18.3875 7.72653 18.2595C5.09753 17.749 3.11603 15.4955 3.11603 12.793V12.7215C3.89153 13.1395 4.77703 13.3905 5.72053 13.4195C4.17753 12.4185 3.16303 10.7145 3.16303 8.77998C3.16303 7.75748 3.44707 6.79948 3.94157 5.97898C6.77557 9.34998 11.0106 11.57 15.7881 11.8035C15.6895 11.3965 15.6386 10.9665 15.6386 10.534C15.6386 7.45448 18.212 4.95898 21.3875 4.95898ZM30.0059 7.57214H30.0109H30.0059ZM21.3874 2.95911C17.4604 2.95911 14.207 5.82814 13.706 9.53514C10.493 8.88964 7.571 7.18864 5.4715 4.69314C5.28382 4.46987 5.04957 4.29036 4.78517 4.1672C4.52078 4.04404 4.23264 3.9802 3.94097 3.98017C3.88859 3.98018 3.83623 3.98218 3.784 3.98617C3.46699 4.01156 3.16057 4.11205 2.89008 4.27933C2.6196 4.44661 2.39282 4.67587 2.2285 4.94817C1.53124 6.10511 1.16283 7.43036 1.16297 8.78117C1.16297 9.68267 1.32494 10.5607 1.63197 11.3817C1.30497 11.7452 1.11647 12.2207 1.11647 12.7227V12.7942C1.11647 14.7532 1.89097 16.5712 3.17697 17.9337C3.10297 18.2767 3.11947 18.6357 3.23247 18.9797C3.676 20.3291 4.4835 21.4922 5.5305 22.3781C4.82747 22.5346 4.102 22.6136 3.36147 22.6136C2.96997 22.6136 2.58897 22.5921 2.22847 22.5481C2.14847 22.5381 2.06947 22.5346 1.98997 22.5346C1.14997 22.5346 0.387472 23.0641 0.104472 23.8716C-0.206028 24.7566 0.138503 25.7376 0.934472 26.2331C3.8885 28.0711 7.30047 29.0416 10.8005 29.0416C22.1765 29.0416 29.0195 20.1361 29.1525 11.4371C30.086 10.6648 30.9106 9.76967 31.604 8.77611C31.8673 8.43038 32.0096 8.00767 32.009 7.57311C32.009 6.89261 31.6685 6.29111 31.15 5.92957C31.3745 5.16007 31.1185 4.32708 30.4935 3.81808C30.1285 3.52108 29.681 3.37008 29.231 3.37008C28.8802 3.36975 28.5356 3.46202 28.232 3.63758C27.571 4.01861 26.864 4.32011 26.1195 4.53714C24.7724 3.52364 23.1024 2.95914 21.3874 2.95911Z" fill="url(#paint0_linear_294_2547)"/>
</g>
<defs>
<linearGradient id="paint0_linear_294_2547" x1="32.009" y1="29.0416" x2="15.1057" y2="-4.62871" gradientUnits="userSpaceOnUse">
<stop stop-color="#C251E9"/>
<stop offset="1" stop-color="#6BE7D8"/>
</linearGradient>
<clipPath id="clip0_294_2547">
<rect width="32" height="32" fill="white"/>
</clipPath>
</defs>
</svg>
