<svg width="37" height="37" viewBox="0 0 37 37" fill="none" xmlns="http://www.w3.org/2000/svg">
<g clip-path="url(#clip0_243_390)">
<path d="M30.8063 25.0201C29.1994 23.2791 27.2495 21.8897 25.0792 20.9394C22.909 19.9891 20.5655 19.4985 18.1963 19.4985C15.8271 19.4985 13.4836 19.9891 11.3133 20.9394C9.1431 21.8897 7.19314 23.2791 5.58629 25.0201C5.33821 25.2944 5.19943 25.6502 5.19629 26.0201V32.0201C5.20155 32.4144 5.3619 32.7908 5.64264 33.0678C5.92337 33.3448 6.30191 33.5001 6.69629 33.5001H29.6963C30.0941 33.5001 30.4756 33.3421 30.7569 33.0607C31.0383 32.7794 31.1963 32.3979 31.1963 32.0001V26.0001C31.1883 25.6372 31.0499 25.2893 30.8063 25.0201Z" fill="#2A2744"/>
<path d="M18.1963 17.5C22.0623 17.5 25.1963 14.366 25.1963 10.5C25.1963 6.63401 22.0623 3.5 18.1963 3.5C14.3303 3.5 11.1963 6.63401 11.1963 10.5C11.1963 14.366 14.3303 17.5 18.1963 17.5Z" fill="#2A2744"/>
</g>
<defs>
<clipPath id="clip0_243_390">
<rect width="36" height="36" fill="white" transform="translate(0.196289 0.5)"/>
</clipPath>
</defs>
</svg>
