<svg width="48" height="32" viewBox="0 0 48 32" fill="none" xmlns="http://www.w3.org/2000/svg">
<g clip-path="url(#clip0_66_403)">
<path d="M41.1458 17.9583H38.2708C38.4653 17.4444 38.9236 16.2014 39.6458 14.2292L39.7083 14.0417C39.7639 13.9028 39.8333 13.7222 39.9167 13.5C40 13.2778 40.0625 13.0972 40.1042 12.9583L40.3542 14.1042L41.1458 17.9583ZM11.0625 16.6042L9.85417 10.4583C9.70139 9.70833 9.18056 9.33333 8.29167 9.33333H2.70833L2.66667 9.60417C6.98611 10.7014 9.78472 13.0347 11.0625 16.6042ZM14.7917 9.33333L11.4167 18.4583L11.0625 16.6042C10.7014 15.6319 10.1111 14.7326 9.29167 13.9062C8.47222 13.0799 7.5625 12.4653 6.5625 12.0625L9.375 22.6875H13.0208L18.4583 9.33333H14.7917ZM17.6875 22.7083H21.1458L23.3125 9.33333H19.8542L17.6875 22.7083ZM33.6875 9.66667C32.7292 9.29167 31.6944 9.10417 30.5833 9.10417C28.875 9.10417 27.4792 9.51389 26.3958 10.3333C25.3125 11.1528 24.7639 12.2153 24.75 13.5208C24.7361 14.9375 25.7431 16.1458 27.7708 17.1458C28.4375 17.4653 28.9028 17.75 29.1667 18C29.4306 18.25 29.5625 18.5208 29.5625 18.8125C29.5625 19.2292 29.3542 19.5486 28.9375 19.7708C28.5208 19.9931 28.0417 20.1042 27.5 20.1042C26.3056 20.1042 25.2222 19.875 24.25 19.4167L23.7917 19.1875L23.3125 22.1875C24.3403 22.6597 25.625 22.8958 27.1667 22.8958C28.9722 22.9097 30.4201 22.5 31.5104 21.6667C32.6007 20.8333 33.1597 19.7222 33.1875 18.3333C33.1875 16.8611 32.2153 15.6528 30.2708 14.7083C29.5903 14.3611 29.0972 14.0694 28.7917 13.8333C28.4861 13.5972 28.3333 13.3333 28.3333 13.0417C28.3333 12.7361 28.5035 12.4688 28.8438 12.2396C29.184 12.0104 29.6736 11.8958 30.3125 11.8958C31.2847 11.8819 32.1458 12.0486 32.8958 12.3958L33.2083 12.5625L33.6875 9.66667ZM42.5417 9.33333H39.875C38.9722 9.33333 38.3681 9.70833 38.0625 10.4583L32.9375 22.7083H36.5625L37.2917 20.7083H41.7083C41.7778 21.0139 41.9167 21.6806 42.125 22.7083H45.3333L42.5417 9.33333ZM48 2.66667V29.3333C48 30.0556 47.7361 30.6806 47.2083 31.2083C46.6806 31.7361 46.0556 32 45.3333 32H2.66667C1.94444 32 1.31944 31.7361 0.791667 31.2083C0.263889 30.6806 0 30.0556 0 29.3333V2.66667C0 1.94444 0.263889 1.31944 0.791667 0.791667C1.31944 0.263889 1.94444 0 2.66667 0H45.3333C46.0556 0 46.6806 0.263889 47.2083 0.791667C47.7361 1.31944 48 1.94444 48 2.66667Z" fill="#F7F9F9"/>
</g>
<defs>
<clipPath id="clip0_66_403">
<rect width="48" height="32" fill="white"/>
</clipPath>
</defs>
</svg>
