<svg width="254" height="33" viewBox="0 0 254 33" fill="none" xmlns="http://www.w3.org/2000/svg">
<path d="M27.7 0.800049H37.492C42.196 0.800049 45.772 1.83205 48.22 3.89605C50.668 5.96005 51.892 8.98405 51.892 12.968C51.892 17.12 50.656 20.3361 48.184 22.6161C45.736 24.8721 42.244 26 37.708 26H27.7V0.800049ZM38.212 24.272C41.404 24.272 43.852 23.3 45.556 21.356C47.284 19.412 48.148 16.616 48.148 12.968C48.148 9.53605 47.308 6.94405 45.628 5.19205C43.948 3.41605 41.476 2.52805 38.212 2.52805H31.444V24.272H38.212Z" fill="#545175"/>
<path d="M58.8665 6.16405C58.1465 6.16405 57.5584 5.96005 57.1024 5.55205C56.6464 5.14405 56.4184 4.60405 56.4184 3.93205C56.4184 3.26005 56.6464 2.72005 57.1024 2.31205C57.5584 1.90405 58.1465 1.70005 58.8665 1.70005C59.5865 1.70005 60.1744 1.90405 60.6304 2.31205C61.0864 2.72005 61.3144 3.26005 61.3144 3.93205C61.3144 4.60405 61.0864 5.14405 60.6304 5.55205C60.1744 5.96005 59.5865 6.16405 58.8665 6.16405ZM57.2104 8.36005H60.5224V26H57.2104V8.36005Z" fill="#545175"/>
<path d="M85.2677 8.79205C84.4757 8.43205 83.5637 8.25205 82.5317 8.25205C81.4037 8.25205 80.4437 8.40805 79.6517 8.72005C80.8997 9.20005 81.8597 9.88405 82.5317 10.772C83.2037 11.66 83.5397 12.7281 83.5397 13.9761C83.5397 15.7041 82.8437 17.156 81.4517 18.3321C80.0837 19.4841 78.0077 20.108 75.2237 20.204C74.1677 20.252 73.2797 20.4081 72.5597 20.6721C71.8397 20.9121 71.4797 21.2121 71.4797 21.5721C71.4797 21.8841 71.7077 22.1241 72.1637 22.292C72.6437 22.4361 73.2437 22.508 73.9637 22.508H75.5117C78.4877 22.508 80.7797 22.9281 82.3877 23.7681C84.0197 24.5841 84.8357 25.7601 84.8357 27.2961C84.8357 28.4481 84.4157 29.444 83.5757 30.284C82.7597 31.1481 81.5837 31.8081 80.0477 32.264C78.5357 32.744 76.7717 32.9841 74.7557 32.9841C72.8357 32.9841 71.1557 32.7801 69.7157 32.3721C68.2997 31.9881 67.1957 31.436 66.4037 30.716C65.6357 30.02 65.2517 29.2041 65.2517 28.2681C65.2517 27.2601 65.7317 26.4201 66.6917 25.7481C67.6517 25.0521 69.1397 24.572 71.1557 24.308C70.0517 24.164 69.2357 23.888 68.7077 23.48C68.1797 23.048 67.9157 22.5441 67.9157 21.9681C67.9157 21.3921 68.2397 20.8761 68.8877 20.4201C69.5357 19.9641 70.3877 19.676 71.4437 19.556C69.8357 19.1241 68.6357 18.428 67.8437 17.468C67.0757 16.508 66.6917 15.3321 66.6917 13.9401C66.6917 12.1401 67.4597 10.7 68.9957 9.62005C70.5317 8.54005 72.5717 8.00005 75.1157 8.00005C76.2197 8.00005 77.1797 8.08405 77.9957 8.25205C78.6437 7.65205 79.3877 7.19605 80.2277 6.88405C81.0677 6.57205 81.9557 6.41605 82.8917 6.41605C83.8517 6.41605 84.6437 6.52405 85.2677 6.74005V8.79205ZM75.1157 18.6921C76.7717 18.6921 78.0437 18.3081 78.9317 17.5401C79.8197 16.7481 80.2637 15.5961 80.2637 14.0841C80.2637 12.5961 79.8197 11.4561 78.9317 10.6641C78.0437 9.87205 76.7717 9.47605 75.1157 9.47605C73.4837 9.47605 72.2237 9.87205 71.3357 10.6641C70.4477 11.4561 70.0037 12.5961 70.0037 14.0841C70.0037 15.5961 70.4357 16.7481 71.2997 17.5401C72.1877 18.3081 73.4597 18.6921 75.1157 18.6921ZM75.8357 24.524C73.3157 24.524 71.3477 24.848 69.9317 25.496C68.5157 26.12 67.8077 26.9841 67.8077 28.0881C67.8077 29.1441 68.4437 29.996 69.7157 30.6441C70.9877 31.3161 72.6797 31.6521 74.7917 31.6521C76.9997 31.6521 78.7637 31.268 80.0837 30.5C81.4277 29.732 82.0997 28.7481 82.0997 27.548C82.0997 26.5401 81.5237 25.784 80.3717 25.28C79.2437 24.776 77.7317 24.524 75.8357 24.524Z" fill="#545175"/>
<path d="M91.9836 6.16405C91.2636 6.16405 90.6756 5.96005 90.2196 5.55205C89.7636 5.14405 89.5356 4.60405 89.5356 3.93205C89.5356 3.26005 89.7636 2.72005 90.2196 2.31205C90.6756 1.90405 91.2636 1.70005 91.9836 1.70005C92.7036 1.70005 93.2916 1.90405 93.7476 2.31205C94.2036 2.72005 94.4316 3.26005 94.4316 3.93205C94.4316 4.60405 94.2036 5.14405 93.7476 5.55205C93.2916 5.96005 92.7036 6.16405 91.9836 6.16405ZM90.3276 8.36005H93.6396V26H90.3276V8.36005Z" fill="#545175"/>
<path d="M105.245 26.3601C103.685 26.3601 102.521 25.928 101.753 25.064C100.985 24.2 100.601 22.868 100.601 21.0681V9.83605H97.4329L97.9369 8.36005H100.637L101.933 3.39205H103.913V8.36005H108.845L108.377 9.83605H103.913V21.5721C103.913 23.7561 104.729 24.848 106.361 24.848C107.225 24.848 108.065 24.6201 108.881 24.1641V25.7121C107.873 26.1441 106.661 26.3601 105.245 26.3601Z" fill="#545175"/>
<path d="M119.012 26.3601C116.684 26.3601 114.908 25.8921 113.684 24.9561C112.484 24.0201 111.884 22.688 111.884 20.96C111.884 19.112 112.616 17.708 114.08 16.748C115.544 15.764 117.68 15.272 120.488 15.272H125.744V13.9761C125.744 12.5121 125.3 11.3961 124.412 10.6281C123.524 9.86005 122.24 9.47605 120.56 9.47605C118.976 9.47605 117.704 9.84805 116.744 10.592C115.784 11.312 115.22 12.344 115.052 13.6881H112.46C112.7 11.864 113.54 10.4601 114.98 9.47605C116.42 8.49205 118.34 8.00005 120.74 8.00005C123.428 8.00005 125.48 8.55205 126.896 9.65605C128.312 10.736 129.02 12.3081 129.02 14.3721V20.204C129.02 22.268 129.2 24.2001 129.56 26H126.464C126.2 24.92 126.032 23.888 125.96 22.904C124.52 25.208 122.204 26.3601 119.012 26.3601ZM119.84 24.9561C120.944 24.9561 121.94 24.7041 122.828 24.2001C123.74 23.6721 124.448 22.976 124.952 22.112C125.48 21.248 125.744 20.2881 125.744 19.2321V16.748H121.388C119.276 16.748 117.704 17.0961 116.672 17.792C115.664 18.4641 115.16 19.508 115.16 20.924C115.16 22.244 115.556 23.252 116.348 23.948C117.14 24.62 118.304 24.9561 119.84 24.9561Z" fill="#545175"/>
<path d="M135.296 1.41205H138.608V26H135.296V1.41205Z" fill="#545175"/>
<path d="M144.698 0.800049H155.498C160.466 0.800049 164.258 1.84405 166.874 3.93205C169.514 5.99605 170.834 9.00805 170.834 12.968C170.834 17.216 169.538 20.456 166.946 22.688C164.378 24.896 160.634 26 155.714 26H144.698V0.800049ZM156.218 23.7681C159.002 23.7681 161.102 22.868 162.518 21.0681C163.934 19.2441 164.642 16.544 164.642 12.968C164.642 9.72805 163.922 7.26805 162.482 5.58805C161.066 3.88405 158.978 3.03205 156.218 3.03205H150.818V23.7681H156.218Z" fill="#2A2744"/>
<path d="M185.65 24.488C187.282 24.488 188.53 24.128 189.394 23.4081C190.282 22.6881 190.858 21.608 191.122 20.168H195.082C194.674 22.16 193.57 23.6961 191.77 24.7761C189.994 25.8321 187.75 26.3601 185.038 26.3601C182.878 26.3601 181.006 26 179.422 25.28C177.838 24.536 176.614 23.48 175.75 22.112C174.91 20.744 174.49 19.124 174.49 17.252C174.49 15.356 174.91 13.7121 175.75 12.3201C176.614 10.9281 177.838 9.86005 179.422 9.11605C181.006 8.37205 182.878 8.00005 185.038 8.00005C188.374 8.00005 190.918 8.79205 192.67 10.376C194.422 11.96 195.298 14.2641 195.298 17.2881H179.818V17.5041C179.818 22.1601 181.762 24.488 185.65 24.488ZM185.218 9.87205C183.73 9.87205 182.542 10.352 181.654 11.312C180.766 12.272 180.202 13.64 179.962 15.4161H190.15C189.958 13.5921 189.442 12.212 188.602 11.276C187.762 10.34 186.634 9.87205 185.218 9.87205Z" fill="#2A2744"/>
<path d="M206.633 26.3601C204.065 26.3601 202.133 25.8921 200.837 24.9561C199.565 23.996 198.929 22.6521 198.929 20.924C198.929 19.1 199.685 17.6961 201.197 16.7121C202.709 15.7281 204.893 15.2361 207.749 15.2361H212.465V14.0481C212.465 12.7041 212.093 11.6721 211.349 10.9521C210.605 10.232 209.537 9.87205 208.145 9.87205C206.777 9.87205 205.685 10.22 204.869 10.916C204.077 11.612 203.585 12.6321 203.393 13.9761H199.433C199.697 12.0321 200.621 10.5561 202.205 9.54805C203.789 8.51605 205.937 8.00005 208.649 8.00005C211.625 8.00005 213.893 8.55205 215.453 9.65605C217.013 10.76 217.793 12.3561 217.793 14.4441V20.132C217.793 22.316 217.973 24.272 218.333 26H213.365C213.125 25.088 212.957 24.284 212.861 23.5881C212.165 24.5721 211.265 25.2801 210.161 25.7121C209.081 26.1441 207.905 26.3601 206.633 26.3601ZM207.749 24.5601C209.237 24.5601 210.389 24.1641 211.205 23.3721C212.045 22.5561 212.465 21.476 212.465 20.132V17.1081H209.261C207.653 17.1081 206.417 17.444 205.553 18.1161C204.689 18.7641 204.257 19.688 204.257 20.8881C204.257 22.112 204.545 23.036 205.121 23.66C205.721 24.26 206.597 24.5601 207.749 24.5601Z" fill="#2A2744"/>
<path d="M223.744 1.41205H229.072V26H223.744V1.41205Z" fill="#2A2744"/>
<path d="M243.152 26.3601C238.016 26.3601 235.004 24.548 234.116 20.924H238.076C238.316 22.1 238.844 22.9881 239.66 23.5881C240.5 24.1881 241.7 24.488 243.26 24.488C244.676 24.488 245.78 24.212 246.572 23.66C247.388 23.084 247.796 22.316 247.796 21.356C247.796 20.66 247.388 20.048 246.572 19.5201C245.756 18.9921 244.64 18.62 243.224 18.404C240.152 17.924 237.932 17.264 236.564 16.4241C235.196 15.584 234.512 14.444 234.512 13.0041C234.512 11.444 235.256 10.22 236.744 9.33205C238.256 8.44405 240.464 8.00005 243.368 8.00005C246.152 8.00005 248.348 8.44405 249.956 9.33205C251.588 10.22 252.536 11.5281 252.8 13.2561H248.84C248.6 12.1521 248.048 11.3121 247.184 10.7361C246.344 10.1601 245.252 9.87205 243.908 9.87205C241.244 9.87205 239.912 10.6521 239.912 12.2121C239.912 12.6681 240.02 13.0521 240.236 13.3641C240.476 13.6521 240.932 13.9281 241.604 14.192C242.276 14.432 243.26 14.66 244.556 14.876C247.508 15.38 249.68 16.1121 251.072 17.0721C252.488 18.0081 253.196 19.2561 253.196 20.8161C253.196 24.5121 249.848 26.3601 243.152 26.3601Z" fill="#2A2744"/>
<path d="M0 4H7V11H0V4Z" fill="#545175"/>
<path d="M4 18H11V25H4V18Z" fill="#151320"/>
<path d="M15 8H22V15H15V8Z" fill="#2A2744"/>
</svg>
