<svg width="254" height="33" viewBox="0 0 254 33" fill="none" xmlns="http://www.w3.org/2000/svg">
<path d="M27.7 0H37.492C42.196 0 45.772 1.032 48.22 3.096C50.668 5.16 51.892 8.184 51.892 12.168C51.892 16.32 50.656 19.536 48.184 21.816C45.736 24.072 42.244 25.2 37.708 25.2H27.7V0ZM38.212 23.472C41.404 23.472 43.852 22.5 45.556 20.556C47.284 18.612 48.148 15.816 48.148 12.168C48.148 8.736 47.308 6.144 45.628 4.392C43.948 2.616 41.476 1.728 38.212 1.728H31.444V23.472H38.212Z" fill="#9693B6"/>
<path d="M58.8665 5.364C58.1465 5.364 57.5584 5.16 57.1024 4.752C56.6464 4.344 56.4184 3.804 56.4184 3.132C56.4184 2.46 56.6464 1.92 57.1024 1.512C57.5584 1.104 58.1465 0.900002 58.8665 0.900002C59.5865 0.900002 60.1744 1.104 60.6304 1.512C61.0864 1.92 61.3144 2.46 61.3144 3.132C61.3144 3.804 61.0864 4.344 60.6304 4.752C60.1744 5.16 59.5865 5.364 58.8665 5.364ZM57.2104 7.56H60.5224V25.2H57.2104V7.56Z" fill="#9693B6"/>
<path d="M85.2677 7.992C84.4757 7.632 83.5637 7.452 82.5317 7.452C81.4037 7.452 80.4437 7.608 79.6517 7.92C80.8997 8.4 81.8597 9.084 82.5317 9.972C83.2037 10.86 83.5397 11.928 83.5397 13.176C83.5397 14.904 82.8437 16.356 81.4517 17.532C80.0837 18.684 78.0077 19.308 75.2237 19.404C74.1677 19.452 73.2797 19.608 72.5597 19.872C71.8397 20.112 71.4797 20.412 71.4797 20.772C71.4797 21.084 71.7077 21.324 72.1637 21.492C72.6437 21.636 73.2437 21.708 73.9637 21.708H75.5117C78.4877 21.708 80.7797 22.128 82.3877 22.968C84.0197 23.784 84.8357 24.96 84.8357 26.496C84.8357 27.648 84.4157 28.644 83.5757 29.484C82.7597 30.348 81.5837 31.008 80.0477 31.464C78.5357 31.944 76.7717 32.184 74.7557 32.184C72.8357 32.184 71.1557 31.98 69.7157 31.572C68.2997 31.188 67.1957 30.636 66.4037 29.916C65.6357 29.22 65.2517 28.404 65.2517 27.468C65.2517 26.46 65.7317 25.62 66.6917 24.948C67.6517 24.252 69.1397 23.772 71.1557 23.508C70.0517 23.364 69.2357 23.088 68.7077 22.68C68.1797 22.248 67.9157 21.744 67.9157 21.168C67.9157 20.592 68.2397 20.076 68.8877 19.62C69.5357 19.164 70.3877 18.876 71.4437 18.756C69.8357 18.324 68.6357 17.628 67.8437 16.668C67.0757 15.708 66.6917 14.532 66.6917 13.14C66.6917 11.34 67.4597 9.9 68.9957 8.82C70.5317 7.74 72.5717 7.2 75.1157 7.2C76.2197 7.2 77.1797 7.284 77.9957 7.452C78.6437 6.852 79.3877 6.396 80.2277 6.084C81.0677 5.772 81.9557 5.616 82.8917 5.616C83.8517 5.616 84.6437 5.724 85.2677 5.94V7.992ZM75.1157 17.892C76.7717 17.892 78.0437 17.508 78.9317 16.74C79.8197 15.948 80.2637 14.796 80.2637 13.284C80.2637 11.796 79.8197 10.656 78.9317 9.864C78.0437 9.072 76.7717 8.676 75.1157 8.676C73.4837 8.676 72.2237 9.072 71.3357 9.864C70.4477 10.656 70.0037 11.796 70.0037 13.284C70.0037 14.796 70.4357 15.948 71.2997 16.74C72.1877 17.508 73.4597 17.892 75.1157 17.892ZM75.8357 23.724C73.3157 23.724 71.3477 24.048 69.9317 24.696C68.5157 25.32 67.8077 26.184 67.8077 27.288C67.8077 28.344 68.4437 29.196 69.7157 29.844C70.9877 30.516 72.6797 30.852 74.7917 30.852C76.9997 30.852 78.7637 30.468 80.0837 29.7C81.4277 28.932 82.0997 27.948 82.0997 26.748C82.0997 25.74 81.5237 24.984 80.3717 24.48C79.2437 23.976 77.7317 23.724 75.8357 23.724Z" fill="#9693B6"/>
<path d="M91.9836 5.364C91.2636 5.364 90.6756 5.16 90.2196 4.752C89.7636 4.344 89.5356 3.804 89.5356 3.132C89.5356 2.46 89.7636 1.92 90.2196 1.512C90.6756 1.104 91.2636 0.900002 91.9836 0.900002C92.7036 0.900002 93.2916 1.104 93.7476 1.512C94.2036 1.92 94.4316 2.46 94.4316 3.132C94.4316 3.804 94.2036 4.344 93.7476 4.752C93.2916 5.16 92.7036 5.364 91.9836 5.364ZM90.3276 7.56H93.6396V25.2H90.3276V7.56Z" fill="#9693B6"/>
<path d="M105.245 25.56C103.685 25.56 102.521 25.128 101.753 24.264C100.985 23.4 100.601 22.068 100.601 20.268V9.036H97.4329L97.9369 7.56H100.637L101.933 2.592H103.913V7.56H108.845L108.377 9.036H103.913V20.772C103.913 22.956 104.729 24.048 106.361 24.048C107.225 24.048 108.065 23.82 108.881 23.364V24.912C107.873 25.344 106.661 25.56 105.245 25.56Z" fill="#9693B6"/>
<path d="M119.012 25.56C116.684 25.56 114.908 25.092 113.684 24.156C112.484 23.22 111.884 21.888 111.884 20.16C111.884 18.312 112.616 16.908 114.08 15.948C115.544 14.964 117.68 14.472 120.488 14.472H125.744V13.176C125.744 11.712 125.3 10.596 124.412 9.828C123.524 9.06 122.24 8.676 120.56 8.676C118.976 8.676 117.704 9.048 116.744 9.792C115.784 10.512 115.22 11.544 115.052 12.888H112.46C112.7 11.064 113.54 9.66 114.98 8.676C116.42 7.692 118.34 7.2 120.74 7.2C123.428 7.2 125.48 7.752 126.896 8.856C128.312 9.936 129.02 11.508 129.02 13.572V19.404C129.02 21.468 129.2 23.4 129.56 25.2H126.464C126.2 24.12 126.032 23.088 125.96 22.104C124.52 24.408 122.204 25.56 119.012 25.56ZM119.84 24.156C120.944 24.156 121.94 23.904 122.828 23.4C123.74 22.872 124.448 22.176 124.952 21.312C125.48 20.448 125.744 19.488 125.744 18.432V15.948H121.388C119.276 15.948 117.704 16.296 116.672 16.992C115.664 17.664 115.16 18.708 115.16 20.124C115.16 21.444 115.556 22.452 116.348 23.148C117.14 23.82 118.304 24.156 119.84 24.156Z" fill="#9693B6"/>
<path d="M135.296 0.612H138.608V25.2H135.296V0.612Z" fill="#9693B6"/>
<path d="M144.698 0H155.498C160.466 0 164.258 1.044 166.874 3.132C169.514 5.196 170.834 8.208 170.834 12.168C170.834 16.416 169.538 19.656 166.946 21.888C164.378 24.096 160.634 25.2 155.714 25.2H144.698V0ZM156.218 22.968C159.002 22.968 161.102 22.068 162.518 20.268C163.934 18.444 164.642 15.744 164.642 12.168C164.642 8.928 163.922 6.468 162.482 4.788C161.066 3.084 158.978 2.232 156.218 2.232H150.818V22.968H156.218Z" fill="#F7F9F9"/>
<path d="M185.65 23.688C187.282 23.688 188.53 23.328 189.394 22.608C190.282 21.888 190.858 20.808 191.122 19.368H195.082C194.674 21.36 193.57 22.896 191.77 23.976C189.994 25.032 187.75 25.56 185.038 25.56C182.878 25.56 181.006 25.2 179.422 24.48C177.838 23.736 176.614 22.68 175.75 21.312C174.91 19.944 174.49 18.324 174.49 16.452C174.49 14.556 174.91 12.912 175.75 11.52C176.614 10.128 177.838 9.06 179.422 8.316C181.006 7.572 182.878 7.2 185.038 7.2C188.374 7.2 190.918 7.992 192.67 9.576C194.422 11.16 195.298 13.464 195.298 16.488H179.818V16.704C179.818 21.36 181.762 23.688 185.65 23.688ZM185.218 9.072C183.73 9.072 182.542 9.552 181.654 10.512C180.766 11.472 180.202 12.84 179.962 14.616H190.15C189.958 12.792 189.442 11.412 188.602 10.476C187.762 9.54 186.634 9.072 185.218 9.072Z" fill="#F7F9F9"/>
<path d="M206.633 25.56C204.065 25.56 202.133 25.092 200.837 24.156C199.565 23.196 198.929 21.852 198.929 20.124C198.929 18.3 199.685 16.896 201.197 15.912C202.709 14.928 204.893 14.436 207.749 14.436H212.465V13.248C212.465 11.904 212.093 10.872 211.349 10.152C210.605 9.432 209.537 9.072 208.145 9.072C206.777 9.072 205.685 9.42 204.869 10.116C204.077 10.812 203.585 11.832 203.393 13.176H199.433C199.697 11.232 200.621 9.756 202.205 8.748C203.789 7.716 205.937 7.2 208.649 7.2C211.625 7.2 213.893 7.752 215.453 8.856C217.013 9.96 217.793 11.556 217.793 13.644V19.332C217.793 21.516 217.973 23.472 218.333 25.2H213.365C213.125 24.288 212.957 23.484 212.861 22.788C212.165 23.772 211.265 24.48 210.161 24.912C209.081 25.344 207.905 25.56 206.633 25.56ZM207.749 23.76C209.237 23.76 210.389 23.364 211.205 22.572C212.045 21.756 212.465 20.676 212.465 19.332V16.308H209.261C207.653 16.308 206.417 16.644 205.553 17.316C204.689 17.964 204.257 18.888 204.257 20.088C204.257 21.312 204.545 22.236 205.121 22.86C205.721 23.46 206.597 23.76 207.749 23.76Z" fill="#F7F9F9"/>
<path d="M223.744 0.612H229.072V25.2H223.744V0.612Z" fill="#F7F9F9"/>
<path d="M243.152 25.56C238.016 25.56 235.004 23.748 234.116 20.124H238.076C238.316 21.3 238.844 22.188 239.66 22.788C240.5 23.388 241.7 23.688 243.26 23.688C244.676 23.688 245.78 23.412 246.572 22.86C247.388 22.284 247.796 21.516 247.796 20.556C247.796 19.86 247.388 19.248 246.572 18.72C245.756 18.192 244.64 17.82 243.224 17.604C240.152 17.124 237.932 16.464 236.564 15.624C235.196 14.784 234.512 13.644 234.512 12.204C234.512 10.644 235.256 9.42 236.744 8.532C238.256 7.644 240.464 7.2 243.368 7.2C246.152 7.2 248.348 7.644 249.956 8.532C251.588 9.42 252.536 10.728 252.8 12.456H248.84C248.6 11.352 248.048 10.512 247.184 9.936C246.344 9.36 245.252 9.072 243.908 9.072C241.244 9.072 239.912 9.852 239.912 11.412C239.912 11.868 240.02 12.252 240.236 12.564C240.476 12.852 240.932 13.128 241.604 13.392C242.276 13.632 243.26 13.86 244.556 14.076C247.508 14.58 249.68 15.312 251.072 16.272C252.488 17.208 253.196 18.456 253.196 20.016C253.196 23.712 249.848 25.56 243.152 25.56Z" fill="#F7F9F9"/>
<path d="M0 3.19995H7V10.2H0V3.19995Z" fill="#F7F9F9"/>
<path d="M4 17.2H11V24.2H4V17.2Z" fill="#545175"/>
<path d="M15 7.19995H22V14.2H15V7.19995Z" fill="#9693B6"/>
</svg>
