<svg width="1920" height="1159" viewBox="0 0 1920 1159" fill="none" xmlns="http://www.w3.org/2000/svg">
<path fill-rule="evenodd" clip-rule="evenodd" d="M1413.21 161.368C1351.27 188.516 1312.44 162.348 1272.75 135.603C1238.06 112.226 1202.72 88.4076 1150.71 99.3681C1039.21 122.868 894.712 351.868 969.712 490.368C1010.52 565.722 1125.18 663.424 1243.23 704.802C1237.14 838.112 1352.27 998.861 1444.71 1018.34C1496.72 1029.31 1532.06 1005.49 1566.75 982.11C1606.44 955.365 1645.27 929.197 1707.21 956.345C1737.99 969.833 1750.72 996.672 1764.96 1026.69C1788.19 1075.68 1815.45 1133.14 1931.71 1154.84C2119.21 1189.84 2214.21 980.845 2226.71 789.845C2233.33 688.734 2151.53 661.887 2052.82 629.489C1965.24 600.742 1864.34 567.625 1800.08 474.378C1879.2 446.587 1938.38 414.463 1932.71 327.868C1920.21 136.868 1825.21 -72.1319 1637.71 -37.1319C1521.45 -15.4295 1494.19 42.0298 1470.96 91.0218C1456.72 121.041 1443.99 147.88 1413.21 161.368ZM474.337 458.603C434.65 485.348 395.818 511.516 333.875 484.368C303.101 470.88 290.37 444.041 276.131 414.022C252.893 365.03 225.638 307.57 109.375 285.868C-78.1248 250.868 -173.125 459.868 -185.625 650.868C-192.242 751.979 -110.444 778.826 -11.7354 811.224C76.0176 840.026 177.135 873.214 241.375 966.868C377.875 1165.87 702.375 951.868 777.375 813.368C852.375 674.868 707.875 445.868 596.375 422.368C544.371 411.408 509.027 435.226 474.337 458.603Z" fill="url(#paint0_linear_66_144)"/>
<path fill-rule="evenodd" clip-rule="evenodd" d="M1413.21 161.368C1351.27 188.516 1312.44 162.348 1272.75 135.603C1238.06 112.226 1202.72 88.4076 1150.71 99.3681C1039.21 122.868 894.712 351.868 969.712 490.368C1010.52 565.722 1125.18 663.424 1243.23 704.802C1237.14 838.112 1352.27 998.861 1444.71 1018.34C1496.72 1029.31 1532.06 1005.49 1566.75 982.11C1606.44 955.365 1645.27 929.197 1707.21 956.345C1737.99 969.833 1750.72 996.672 1764.96 1026.69C1788.19 1075.68 1815.45 1133.14 1931.71 1154.84C2119.21 1189.84 2214.21 980.845 2226.71 789.845C2233.33 688.734 2151.53 661.887 2052.82 629.489C1965.24 600.742 1864.34 567.625 1800.08 474.378C1879.2 446.587 1938.38 414.463 1932.71 327.868C1920.21 136.868 1825.21 -72.1319 1637.71 -37.1319C1521.45 -15.4295 1494.19 42.0298 1470.96 91.0218C1456.72 121.041 1443.99 147.88 1413.21 161.368ZM474.337 458.603C434.65 485.348 395.818 511.516 333.875 484.368C303.101 470.88 290.37 444.041 276.131 414.022C252.893 365.03 225.638 307.57 109.375 285.868C-78.1248 250.868 -173.125 459.868 -185.625 650.868C-192.242 751.979 -110.444 778.826 -11.7354 811.224C76.0176 840.026 177.135 873.214 241.375 966.868C377.875 1165.87 702.375 951.868 777.375 813.368C852.375 674.868 707.875 445.868 596.375 422.368C544.371 411.408 509.027 435.226 474.337 458.603Z" fill="url(#paint1_linear_66_144)"/>
<defs>
<linearGradient id="paint0_linear_66_144" x1="-186" y1="1047.71" x2="296.498" y2="41.4826" gradientUnits="userSpaceOnUse">
<stop stop-color="#C251E9"/>
<stop offset="1" stop-color="#6BE7D8"/>
</linearGradient>
<linearGradient id="paint1_linear_66_144" x1="306.044" y1="282" x2="306.044" y2="1047.71" gradientUnits="userSpaceOnUse">
<stop stop-color="#F7F9F9"/>
<stop offset="1" stop-color="#F7F9F9" stop-opacity="0"/>
</linearGradient>
</defs>
</svg>
